<svg id="Capa_1" enable-background="new 0 0 512 512" height="512" viewBox="0 0 512 512" width="512" xmlns="http://www.w3.org/2000/svg" xmlns:xlink="http://www.w3.org/1999/xlink"><linearGradient id="SVGID_1_" gradientUnits="userSpaceOnUse" x1="256" x2="256" y1="421" y2="91"><stop offset="0" stop-color="#fd5900"/><stop offset="1" stop-color="#ffde00"/></linearGradient><linearGradient id="SVGID_2_" gradientUnits="userSpaceOnUse" x1="256" x2="256" y1="512" y2="0"><stop offset="0" stop-color="#ffe59a"/><stop offset="1" stop-color="#ffffd5"/></linearGradient><g><g><g><circle cx="256" cy="256" fill="url(#SVGID_1_)" r="165"/></g></g><g><g><path d="m271 262.973c0-5.332 2.871-10.327 7.5-13.008 13.887-8.013 22.5-22.954 22.5-38.965 0-24.814-20.186-45-45-45s-45 20.186-45 45c0 8.291 6.709 15 15 15s15-6.709 15-15c0-8.276 6.738-15 15-15s15 6.724 15 15c0 5.347-2.871 10.327-7.529 13.008-13.858 8.027-22.471 22.954-22.471 38.965v8.027c0 8.291 6.709 15 15 15s15-6.709 15-15zm-15 53.027c-8.284 0-15 6.716-15 15s6.716 15 15 15 15-6.716 15-15-6.716-15-15-15zm203.423-214.702h9.716c8.291 0 15-6.709 15-15s-6.709-15-15-15h-42.422c-8.206 0-15 6.727-15 15v42.422c0 8.291 6.709 15 15 15s15-6.709 15-15v-.991c26.085 37.409 40.283 81.718 40.283 128.271 0 36.255-8.35 70.854-24.814 102.832-3.809 7.368-.908 16.406 6.475 20.2 7.227 3.758 16.344.992 20.186-6.46 18.426-35.771 28.153-76.069 28.153-116.572 0-56.706-18.618-110.444-52.577-154.702zm-315.689-16c0-8.291-6.709-15-15-15h-1.029c37.416-26.096 81.737-40.298 128.295-40.298 36.24 0 70.84 8.35 102.861 24.814 7.354 3.838 16.377.908 20.186-6.46s.908-16.421-6.475-20.2c-36.269-18.676-75.498-28.154-116.572-28.154-56.721 0-110.451 18.633-154.717 52.595v-9.734c0-8.291-6.709-15-15-15s-15 6.709-15 15v42.437c0 8.271 6.79 15 15 15h42.451c8.291 0 15-6.709 15-15zm281.983 326.404h-42.451c-8.291 0-15 6.709-15 15s6.709 15 15 15h1.029c-37.416 26.096-81.737 40.298-128.295 40.298-36.24 0-70.84-8.35-102.861-24.814-7.354-3.794-16.377-.908-20.186 6.46s-.908 16.421 6.475 20.2c36.269 18.676 75.498 28.154 116.572 28.154 56.719 0 110.449-18.631 154.717-52.593v9.732c0 8.291 6.709 15 15 15s15-6.709 15-15v-42.437c0-8.206-6.727-15-15-15zm-340.434-43.422c-8.291 0-15 6.709-15 15v.991c-26.085-37.409-40.283-81.718-40.283-128.271 0-36.255 8.35-70.854 24.814-102.832 3.809-7.368.908-16.406-6.475-20.2-7.324-3.809-16.377-.923-20.186 6.46-18.426 35.771-28.153 76.069-28.153 116.572 0 56.706 18.618 110.444 52.577 154.702h-9.716c-8.291 0-15 6.709-15 15s6.709 15 15 15h42.422c8.206 0 15-6.727 15-15v-42.422c0-8.291-6.709-15-15-15z" fill="url(#SVGID_2_)"/></g></g></g></svg>