<?xml version="1.0" encoding="utf-8"?>
<!-- Generator: Adobe Illustrator 24.0.1, SVG Export Plug-In . SVG Version: 6.00 Build 0)  -->
<svg version="1.1" id="Layer_1" xmlns="http://www.w3.org/2000/svg" xmlns:xlink="http://www.w3.org/1999/xlink" x="0px" y="0px"
	 viewBox="0 0 411.8 550.6" style="enable-background:new 0 0 411.8 550.6;" xml:space="preserve">
<style type="text/css">
	.st0{fill:#FFFFFF;}
	.st1{fill:#4B2885;}
	.st2{fill:#EEB111;}
</style>
<g>
	<rect x="0" class="st0" width="411.8" height="550.6"/>
	<rect x="22.5" y="22.5" class="st1" width="368.3" height="368.2"/>
	<g>
		<path class="st1" d="M139.6,434.4l2.6-16.2c0,0-13.2-5.2-31-5.2c-17.8,0-39.9,5.2-39.9,30.1c0,22.3,25.6,26.2,31.4,27.7
			c5.8,1.5,24,5,24,14.7c0,9.8-13.4,12.8-21.6,12.6c-18.4-0.4-32.1-8.5-32.1-8.5l-2.6,17.3c0,0,13.6,7.8,34.4,7.8
			c20.8,0,40.9-8.9,40.9-29.2c0-19.1-11.5-26-29.9-30.3c-21.2-5-25.4-8-25.4-13.9c0-6.1,6.1-11.5,21.5-11.5
			C125.3,429.8,139.6,434.4,139.6,434.4z"/>
		<path class="st1" d="M236.4,433.9l2.4-16.5c0,0-11.7-5-27.5-5c-15.8,0-51.8,3.2-51.8,51.6c0,48.3,36.4,50.7,50.7,50.7
			s28.8-5.8,28.8-5.8l-2.4-16c0,0-10.2,4.8-24.5,4.8c-13.6,0-31.2-2.4-31.2-33.8c0-31.8,17.3-33.8,31.6-33.8
			C223.6,430,236.4,433.9,236.4,433.9z"/>
		<path class="st1" d="M323.5,461.5c0,0.1,0-0.8,0-0.8s14.5-2,14.5-21.5c0-20.1-18.6-24.7-35.3-24.7c-16.7,0-44.6,0-44.6,0v98.8
			c0,0,24.7-0.2,46.6-0.2c21.9,0,38.1-7.4,38.1-28C342.7,465.6,326.4,462.2,323.5,461.5z M277.4,430.8c0,0,17.3,0.1,26,0.1
			c8.7,0,15.7,2.6,15.7,12.2c0,8.5-4.7,12.5-15.6,12.5c-10.9,0-26.1-0.1-26.1-0.1V430.8z M305.5,496.8c-9.4,0-27.9-0.1-27.9-0.1
			l-0.1-26.9c0,0,21.7,0.1,28.7,0.1c7,0,16.6,1.4,16.6,13C322.7,495.1,314.9,496.8,305.5,496.8z"/>
	</g>
	<path class="st2" d="M349.6,332.2l-39.2-153.3l-103.8-94l-103.8,94L63.7,332.2l74.1,34.9h58.6v-52.4c0,0-108.8,57.4-80.4-71.2
		c9.4-42.6,59.4-99.6,88-115.4c0.9-0.5,1.8-0.9,2.6-1.4c0,0,0,0,0,0l0,0c28,13.6,80.9,72.8,90.6,116.7
		c28.4,128.6-80.4,71.2-80.4,71.2v52.4h58.6L349.6,332.2z"/>
</g>
</svg>
